<?xml version="1.0" ?><svg baseProfile="tiny" id="Layer_1" version="1.2" viewBox="0 0 512 512" xml:space="preserve" xmlns="http://www.w3.org/2000/svg" xmlns:xlink="http://www.w3.org/1999/xlink"><g id="XMLID_1072_"><circle cx="256" cy="256" fill="#EBB342" id="XMLID_888_" r="256"/><path d="M512,256c0-3.3-0.1-6.5-0.2-9.8L366,98.6c0-1.4-1.3-2.6-2.9-2.6h-34.5   c-1.6,0-2.9,1.2-2.9,2.6v5.8l9.1,6.2h-9.1v15.7l-8.4-8.3H152.5c-12.5,0-22.6,10.1-22.6,22.6v155.2l9.1,5.6h-13.8V375l9.1,5.6h-4.5   v12.8c0,7.4,3.6,14,9.1,18.1c0.9,1.2,62.2,62.6,99.6,99.9c5.8,0.4,11.6,0.6,17.4,0.6C397.4,512,512,397.4,512,256z" fill="#DB9F35" id="XMLID_936_"/><g id="XMLID_7_"><path d="M257.1,338.2l42-36.8H125.2V375h173.9L257.1,338.2z M150.9,350.4c1.6,2.2,3.9,3.3,6.7,3.3    c2.8,0,4.9-0.7,6.3-2.2c1.4-1.4,2.2-3.5,2.2-6.2h6.5l0.1,0.2c0.1,4.1-1.2,7.4-4,9.9c-2.7,2.5-6.4,3.8-11,3.8    c-4.7,0-8.5-1.6-11.4-4.8c-2.9-3.2-4.4-7.2-4.4-12.2v-7.7c0-4.9,1.4-9,4.3-12.2c2.9-3.2,6.7-4.8,11.3-4.8c4.8,0,8.5,1.2,11.2,3.6    c2.7,2.4,4.1,5.7,4,10l-0.1,0.2H166c0-2.7-0.7-4.8-2.2-6.2c-1.5-1.4-3.6-2.2-6.4-2.2c-2.7,0-4.9,1.1-6.5,3.3    c-1.6,2.2-2.4,4.9-2.4,8.2v7.7C148.4,345.4,149.3,348.2,150.9,350.4z M204.9,356c-2.6,2-6.1,3-10.4,3c-4.1,0-7.7-1.1-10.7-3.3    c-3.1-2.2-4.5-5.3-4.4-9.2l0.1-0.2h6.5c0,2.4,0.8,4.3,2.5,5.5c1.7,1.2,3.7,1.8,6.1,1.8c2.4,0,4.2-0.5,5.6-1.5c1.3-1,2-2.4,2-4.1    c0-1.7-0.6-3.1-1.8-4.1c-1.2-1.1-3.3-2-6.3-2.9c-4.4-1.2-7.7-2.8-10.1-4.7c-2.4-2-3.5-4.5-3.5-7.7c0-3.3,1.3-5.9,3.9-8.1    c2.6-2.1,5.9-3.2,10-3.2c4.4,0,7.9,1.2,10.5,3.5c2.6,2.3,3.9,5.2,3.8,8.7l-0.1,0.2h-6.5c0-2.1-0.7-3.8-2.1-5.1    c-1.4-1.3-3.3-1.9-5.7-1.9c-2.3,0-4,0.5-5.3,1.6c-1.2,1.1-1.8,2.5-1.8,4.2c0,1.6,0.7,2.8,2,3.8c1.4,1,3.6,2,6.7,2.9    c4.2,1.2,7.5,2.8,9.7,4.8c2.2,2,3.3,4.7,3.3,7.8C208.8,351.4,207.5,354,204.9,356z M241.5,356c-2.6,2-6.1,3-10.4,3    c-4.1,0-7.7-1.1-10.7-3.3c-3.1-2.2-4.5-5.3-4.4-9.2l0.1-0.2h6.5c0,2.4,0.8,4.3,2.5,5.5c1.7,1.2,3.7,1.8,6.1,1.8    c2.4,0,4.2-0.5,5.6-1.5c1.3-1,2-2.4,2-4.1c0-1.7-0.6-3.1-1.8-4.1c-1.2-1.1-3.3-2-6.3-2.9c-4.4-1.2-7.7-2.8-10.1-4.7    c-2.4-2-3.5-4.5-3.5-7.7c0-3.3,1.3-5.9,3.9-8.1c2.6-2.1,5.9-3.2,10-3.2c4.4,0,7.9,1.2,10.5,3.5c2.6,2.3,3.9,5.2,3.8,8.7l-0.1,0.2    h-6.5c0-2.1-0.7-3.8-2.1-5.1c-1.4-1.3-3.3-1.9-5.7-1.9c-2.3,0-4,0.5-5.3,1.6c-1.2,1.1-1.8,2.5-1.8,4.2c0,1.6,0.7,2.8,2,3.8    c1.4,1,3.6,2,6.7,2.9c4.2,1.2,7.5,2.8,9.7,4.8c2.2,2,3.3,4.7,3.3,7.8C245.5,351.4,244.2,354,241.5,356z" fill="#FFFFFF" id="XMLID_8_"/><path d="M383.9,167.1H366v-34.6h-40.4v34.6h-17.8c-2.5,0-3.9,2.7-2.2,4.4l38,44.1    c1.2,1.1,3.2,1.1,4.3,0l38-44.1C387.7,169.8,386.4,167.1,383.9,167.1z" fill="#FFFFFF" id="XMLID_724_"/><rect fill="#FFFFFF" height="15.7" id="XMLID_723_" width="40.4" x="325.7" y="110.6"/><path d="M341.4,224v166c0,9.6-7.8,17.5-17.5,17.5H155.9c-9.6,0-17.5-7.8-17.5-17.5v-9.4h-8.6v12.8    c0,12.5,10.1,22.6,22.6,22.6h174.9c12.5,0,22.6-10.1,22.6-22.6V224.1c-1.3,0.5-2.7,0.8-4.1,0.8C344.3,224.8,342.8,224.5,341.4,224    z" fill="#FFFFFF" id="XMLID_722_"/><path d="M138.4,144.1c0-9.6,7.8-17.5,17.5-17.5h161.4v-2.5v-6.1H152.5    c-12.5,0-22.6,10.1-22.6,22.6v155.2h8.6V144.1z" fill="#FFFFFF" id="XMLID_721_"/><path d="M299,176.6H164v12.4h145.7l-10.3-11.9C299.3,177,299.1,176.8,299,176.6z" fill="#FFFFFF" id="XMLID_720_"/><rect fill="#FFFFFF" height="12.4" id="XMLID_719_" width="151.8" x="164" y="196.8"/><rect fill="#FFFFFF" height="12.4" id="XMLID_718_" width="151.8" x="164" y="217"/><rect fill="#FFFFFF" height="12.4" id="XMLID_717_" width="151.8" x="164" y="237.2"/><rect fill="#FFFFFF" height="12.4" id="XMLID_716_" width="118.9" x="164" y="257.3"/><path d="M366,98.6c0-1.4-1.3-2.6-2.9-2.6h-34.5c-1.6,0-2.9,1.2-2.9,2.6v5.8H366V98.6z" fill="#FFFFFF" id="XMLID_715_"/></g></g></svg>